<svg width="225" height="136" viewBox="0 0 225 136" fill="none" xmlns="http://www.w3.org/2000/svg">
<path fill-rule="evenodd" clip-rule="evenodd" d="M115.055 3.50863C94.1788 3.5786 73.6862 4.06919 67.0659 4.7588C64.7599 4.99901 62.2612 6.18979 59.6763 8.13286C57.1054 10.0654 54.5535 12.6633 52.1543 15.5499C47.355 21.3239 43.294 28.0977 41.0331 32.5584L40.5232 32.2999L40.2129 33.7184C38.7495 33.3983 36.2109 32.9046 33.7779 32.6022C32.5597 32.4508 31.3978 32.3511 30.4247 32.3401C29.3935 32.3283 28.7726 32.4218 28.5087 32.5273L27.69 32.8548L27.0057 32.2988L25.5144 31.0871L24.3923 30.1754L25.2622 29.0205C26.1145 27.889 27.2154 26.1338 27.7969 24.5483C28.0911 23.746 28.2032 23.1167 28.1741 22.6898C28.1656 22.5652 28.1477 22.473 28.1235 22.4031C25.9854 22.5066 22.9664 22.9435 20.2409 23.9387C17.2494 25.0309 15.0027 26.6454 14.2374 28.8339C14.2616 28.9461 14.3965 29.3008 15.1468 29.7782C16.2453 30.4771 18.4476 31.2477 22.5453 31.5015L26.1561 31.7252L23.4465 34.1222L21.0232 36.2658L20.4333 36.7877L19.6688 36.5984C18.5262 36.3155 16.9448 36.5801 15.0545 37.4722C13.1997 38.3476 11.2357 39.7405 9.43587 41.4014C7.63833 43.0601 6.05478 44.9397 4.93714 46.7472C3.7949 48.5944 3.24467 50.1958 3.26135 51.3378L0.261672 51.3816C0.232636 49.3939 1.12885 47.2017 2.38555 45.1694C3.66685 43.0973 5.43471 41.0114 7.40139 39.1966C9.36575 37.384 11.5788 35.7953 13.7741 34.7592C14.7832 34.2829 15.832 33.9032 16.8788 33.6872C15.4704 33.3138 14.3747 32.8427 13.5364 32.3093C11.8256 31.2208 10.97 29.6809 11.2944 28.2033L11.3089 28.1371L11.3294 28.0724C12.4777 24.4435 15.8996 22.33 19.2119 21.1206C22.5871 19.8883 26.276 19.4317 28.6664 19.3826L29.0914 19.3739L29.4577 19.5894C30.616 20.2707 31.092 21.3857 31.1671 22.4854C31.2378 23.5196 30.9701 24.6088 30.6134 25.5812C30.1197 26.9274 29.3607 28.2998 28.6261 29.4359C29.2154 29.3537 29.8479 29.3333 30.4588 29.3402C31.5885 29.3531 32.8731 29.4666 34.1479 29.6251C35.7629 29.8258 37.4103 30.1049 38.7873 30.3669C41.1873 25.7762 45.1643 19.2662 49.8472 13.6322C52.3349 10.6392 55.0537 7.85462 57.8737 5.73481C60.6798 3.62549 63.6926 2.09396 66.7551 1.77495C73.556 1.06652 94.2126 0.578473 115.045 0.508644C135.865 0.438857 157.108 0.785284 165.053 1.77846C171.949 2.6405 177.787 8.00426 182.197 13.9335C186.347 19.5133 189.448 25.8836 191.178 30.4081C194.903 30.4916 197.111 30.3316 200.54 29.6725C199.984 28.3968 199.473 26.9986 199.204 25.6897C199.006 24.7206 198.912 23.6737 199.119 22.7136C199.339 21.697 199.914 20.7346 201.018 20.1897C202.276 19.5683 210.035 17.7654 218.238 28.1546C218.529 28.5236 218.631 29.0078 218.512 29.4627C218.01 31.3877 216.115 33.3189 213.694 34.5301C213.219 34.7682 212.714 34.9834 212.183 35.1697C213.428 35.6597 214.718 36.2203 215.948 36.8376C217.465 37.5986 218.939 38.4682 220.141 39.4269C221.316 40.3636 222.382 41.5028 222.856 42.845C223.545 44.797 224.046 46.5645 224.376 47.8447C224.541 48.4856 224.663 49.0062 224.745 49.369C224.786 49.5505 224.816 49.6927 224.837 49.7908C224.847 49.8399 224.855 49.878 224.861 49.9045L224.867 49.9355L224.869 49.9444L224.869 49.9471L224.87 49.9481L224.87 49.9485C224.87 49.9486 224.87 49.9488 223.398 50.2412C221.927 50.5337 221.927 50.5338 221.927 50.5339L221.927 50.5335L221.926 50.5289L221.922 50.5066L221.914 50.4689L221.902 50.4108C221.884 50.3249 221.856 50.1956 221.818 50.0276C221.742 49.6914 221.627 49.2008 221.47 48.5927C221.157 47.3751 220.68 45.6941 220.027 43.8434C219.829 43.2842 219.278 42.5757 218.271 41.7725C217.291 40.9911 216.017 40.2285 214.603 39.5192C211.777 38.1016 208.571 36.9864 206.494 36.3994L206.418 36.3779L206.344 36.3487L204.014 35.4166L204.939 32.5696C207.856 33.3072 210.436 32.8061 212.352 31.8473C213.887 31.0792 214.865 30.0939 215.328 29.3295C208.485 21.1288 202.75 22.7654 202.365 22.875C202.349 22.8798 202.342 22.8817 202.346 22.8797C202.23 22.9372 202.121 23.0255 202.052 23.347C201.97 23.7251 201.982 24.3039 202.143 25.0872C202.462 26.6422 203.256 28.5059 204.048 30.091L204.915 31.825L203.019 32.2289C197.856 33.3287 195.348 33.5424 190.079 33.3795L189.059 33.348L188.714 32.3885C187.152 28.0536 184.033 21.4292 179.79 15.7239C175.502 9.9593 170.311 5.45907 164.681 4.75529C156.968 3.79121 135.943 3.43861 115.055 3.50863ZM49.1882 31.6889C52.3976 25.916 61.2635 15.872 69.2466 13.7591C78.79 11.2333 126.125 9.04815 158.306 13.7591C161.462 13.6459 169.587 17.0734 176.84 31.6889C171.835 31.7257 165.905 31.7747 159.383 31.8287L159.381 31.8287C119.434 32.1591 57.2625 32.6733 49.1882 31.6889ZM10.4239 55.7688C14.3118 54.2906 39.1653 58.6266 54.8667 61.8235C53.7926 64.0702 51.5226 68.5882 51.0348 68.6865C45.2776 70.0943 26.063 66.5913 13.5081 64.1277C8.34903 59.5523 9.30233 56.6487 10.4239 55.7688ZM214.637 55.7688C210.749 54.2906 185.895 58.6266 170.193 61.8235C171.267 64.0702 173.537 68.5882 174.025 68.6865C179.782 70.0943 198.998 66.5913 211.553 64.1277C216.712 59.5523 215.759 56.6487 214.637 55.7688ZM87.9031 87.4114C88.0057 83.7212 89.3713 78.1419 93.122 73.5068C96.8389 68.9136 102.954 65.1742 112.737 65.1742C122.521 65.1742 128.734 68.9147 132.569 73.5178C136.436 78.16 137.935 83.745 138.126 87.4352L140.123 87.332C139.914 83.2858 138.295 77.266 134.106 72.2377C129.884 67.1701 123.104 63.1742 112.737 63.1742C102.37 63.1742 95.676 67.1713 91.5673 72.2487C87.4926 77.2842 86.0164 83.3095 85.9038 87.3558L87.9031 87.4114ZM21.4461 123.139C21.7021 123.032 21.8514 122.862 21.8941 122.627C21.8941 122.371 21.8514 122.158 21.7661 121.987C21.7447 121.88 21.7021 121.774 21.6381 121.667C21.5741 121.56 21.4887 121.464 21.3821 121.379C21.2327 121.272 21.0621 121.23 20.8701 121.251C20.6994 121.251 20.5287 121.208 20.3581 121.123C20.2301 121.08 20.1127 120.995 20.0061 120.867C19.8994 120.718 19.7501 120.632 19.5581 120.611C19.3234 120.547 18.9501 120.579 18.4381 120.707C17.9474 120.835 17.4887 120.942 17.0621 121.027C16.8487 121.048 16.6887 121.144 16.5821 121.315C16.4967 121.464 16.4754 121.646 16.5181 121.859C16.6034 122.2 16.7634 122.488 16.9981 122.723C17.2541 122.936 17.5101 123.128 17.7661 123.299C17.9367 123.384 18.0327 123.523 18.0541 123.715C18.0967 123.886 18.0541 124.035 17.9261 124.163C17.4994 124.696 17.0514 125.219 16.5821 125.731C16.1127 126.222 15.5901 126.595 15.0141 126.851C14.4594 127.086 13.8087 127.075 13.0621 126.819C12.8701 126.755 12.6994 126.67 12.5501 126.563C12.4221 126.456 12.2941 126.328 12.1661 126.179C12.0167 125.944 11.8994 125.731 11.8141 125.539C11.7287 125.326 11.6754 125.016 11.6541 124.611V124.323L11.7181 124.003C11.9527 123.32 12.1767 122.616 12.3901 121.891C12.6247 121.166 12.8807 120.483 13.1581 119.843C13.2007 119.758 13.2434 119.683 13.2861 119.619C13.3287 119.534 13.3927 119.47 13.4781 119.427C13.7767 119.107 14.0327 118.734 14.2461 118.307C14.4807 117.88 14.7367 117.486 15.0141 117.123C15.1421 116.974 15.2594 116.856 15.3661 116.771C15.7074 116.536 16.1021 116.302 16.5501 116.067C17.0194 115.811 17.4887 115.619 17.9581 115.491C18.2141 115.448 18.3954 115.384 18.5021 115.299H18.5341L18.6621 115.363C18.7261 115.363 18.7901 115.384 18.8541 115.427C19.1101 115.47 19.3554 115.512 19.5901 115.555C19.8461 115.598 20.0807 115.608 20.2941 115.587C20.4434 115.544 20.5714 115.352 20.6781 115.011C20.7847 114.648 20.7314 114.392 20.5181 114.243C20.1127 113.923 19.5901 113.592 18.9501 113.251C18.3314 112.91 17.8087 112.728 17.3821 112.707C16.2941 112.558 15.2274 112.782 14.1821 113.379C13.1581 113.976 12.2514 114.787 11.4621 115.811C10.6727 116.835 10.0861 117.934 9.70208 119.107C9.40341 120.046 9.20075 120.899 9.09408 121.667C9.00875 122.414 8.99808 123.16 9.06208 123.907C9.12608 124.654 9.23275 125.475 9.38208 126.371C9.38208 126.478 9.43541 126.563 9.54208 126.627C9.64875 126.67 9.70208 126.734 9.70208 126.819C9.78741 127.459 10.1074 128.003 10.6621 128.451C11.2381 128.878 11.8994 129.187 12.6461 129.379C13.4141 129.571 14.1074 129.624 14.7261 129.539C15.1101 129.475 15.4941 129.326 15.8781 129.091C16.2834 128.856 16.6567 128.632 16.9981 128.419C17.1901 128.312 17.3821 128.174 17.5741 128.003C17.7874 127.811 17.9901 127.64 18.1821 127.491C18.4381 127.256 18.6514 127 18.8221 126.723C18.9927 126.424 19.1634 126.147 19.3341 125.891C19.5261 125.635 19.6327 125.368 19.6541 125.091C19.6754 124.92 19.7394 124.75 19.8461 124.579C19.9527 124.387 20.0381 124.184 20.1021 123.971C20.2087 123.523 20.4861 123.267 20.9341 123.203C21.0407 123.182 21.1261 123.171 21.1901 123.171C21.2754 123.171 21.3607 123.16 21.4461 123.139ZM37.2026 128.355C37.3519 128.206 37.4372 128.024 37.4586 127.811C37.4799 127.576 37.4159 127.384 37.2666 127.235C37.1172 127.086 36.9252 127.022 36.6906 127.043H36.3706C36.1359 127.064 35.9226 127.011 35.7306 126.883C35.5599 126.734 35.4426 126.552 35.3786 126.339C35.2932 125.998 35.1972 125.667 35.0906 125.347C34.9839 125.027 34.8239 124.782 34.6106 124.611C34.4612 124.44 34.2692 124.344 34.0346 124.323C33.7999 124.302 33.5866 124.355 33.3946 124.483C32.9252 124.846 32.4879 125.251 32.0826 125.699C31.6986 126.147 31.2719 126.563 30.8026 126.947C30.3332 127.31 29.7359 127.544 29.0106 127.651C28.7972 127.672 28.6052 127.619 28.4346 127.491C28.2639 127.342 28.1786 127.16 28.1786 126.947C28.1572 126.648 28.1999 126.328 28.3066 125.987C28.4346 125.646 28.5412 125.336 28.6266 125.059C28.7972 124.504 29.0106 124.056 29.2666 123.715C29.5439 123.374 29.8106 123.086 30.0666 122.851C30.1092 122.787 30.1519 122.734 30.1946 122.691C30.2586 122.648 30.3332 122.606 30.4186 122.563C31.0372 122.222 31.7199 122.051 32.4666 122.051C33.2132 122.051 33.8532 122.296 34.3866 122.787C34.6212 122.979 34.9092 123.043 35.2506 122.979C35.4212 122.936 35.5279 122.84 35.5706 122.691C35.6346 122.542 35.6132 122.392 35.5066 122.243C35.0586 121.582 34.5252 121.048 33.9066 120.643C33.3092 120.238 32.6052 119.96 31.7946 119.811C30.8346 119.64 29.9492 119.779 29.1386 120.227C28.3279 120.654 27.6772 121.251 27.1866 122.019C26.9519 122.403 26.6959 122.883 26.4186 123.459C26.1626 124.014 25.9812 124.536 25.8746 125.027C25.7252 125.667 25.7572 126.275 25.9706 126.851C26.1839 127.406 26.4292 127.928 26.7066 128.419C26.8772 128.696 27.1012 128.92 27.3786 129.091C27.4426 129.112 27.4959 129.144 27.5386 129.187L27.6666 129.315C27.9226 129.528 28.1999 129.667 28.4986 129.731C28.8399 129.816 29.2026 129.87 29.5866 129.891C29.9706 129.912 30.3439 129.891 30.7066 129.827C31.1759 129.784 31.5492 129.571 31.8266 129.187C31.9759 128.974 32.1359 128.803 32.3066 128.675C32.4986 128.547 32.6692 128.398 32.8186 128.227L33.0426 128.003C33.1279 127.918 33.2132 127.843 33.2986 127.779C33.4906 127.672 33.5972 127.566 33.6186 127.459C33.6826 127.331 33.7679 127.256 33.8746 127.235C34.0026 127.214 34.1092 127.256 34.1946 127.363C34.4719 127.64 34.8239 127.896 35.2506 128.131C35.6986 128.366 36.1572 128.504 36.6266 128.547C36.8612 128.568 37.0532 128.504 37.2026 128.355ZM51.1978 122.851C51.3472 122.659 51.3685 122.456 51.2618 122.243C51.1552 121.966 50.9738 121.72 50.7178 121.507C50.4832 121.272 50.2165 121.08 49.9178 120.931C49.5125 120.718 49.1285 120.654 48.7658 120.739C48.2325 120.824 47.6565 121.016 47.0378 121.315C46.4192 121.614 45.7792 122.179 45.1178 123.011C45.0325 123.139 44.9152 123.182 44.7658 123.139C44.6378 123.075 44.5845 122.968 44.6058 122.819C44.7125 121.902 44.7018 121.219 44.5738 120.771C44.4672 120.323 44.2752 120.014 43.9978 119.843C43.7205 119.672 43.3898 119.566 43.0058 119.523C42.8138 119.502 42.6538 119.566 42.5258 119.715C42.3978 119.864 42.3552 120.035 42.3978 120.227C42.4405 120.419 42.4405 120.632 42.3978 120.867C42.2485 121.614 42.0778 122.446 41.8858 123.363C41.7152 124.259 41.5658 125.134 41.4378 125.987C41.3098 126.819 41.2565 127.523 41.2778 128.099C41.3205 128.654 41.4912 128.963 41.7898 129.027C41.9392 129.027 42.0778 129.059 42.2058 129.123C42.3765 129.187 42.5578 129.198 42.7498 129.155C42.9632 129.112 43.1232 129.016 43.2298 128.867C43.4005 128.675 43.5605 128.494 43.7098 128.323C43.8805 128.131 44.0298 127.918 44.1578 127.683C44.2218 127.576 44.2965 127.47 44.3818 127.363C44.4885 127.235 44.5952 127.128 44.7018 127.043C44.8298 126.936 44.9578 126.84 45.0858 126.755C45.2138 126.648 45.3205 126.52 45.4058 126.371C45.4912 126.264 45.5765 126.168 45.6618 126.083C45.7685 125.976 45.8645 125.87 45.9498 125.763C46.2912 125.443 46.6218 125.102 46.9418 124.739C47.2832 124.355 47.6778 124.046 48.1258 123.811C48.3392 123.704 48.5738 123.544 48.8298 123.331C49.1072 123.118 49.2565 123 49.2778 122.979C49.4485 122.915 49.6618 122.915 49.9178 122.979C50.1952 123.022 50.4512 123.064 50.6858 123.107C50.8992 123.128 51.0698 123.043 51.1978 122.851ZM66.5776 128.355C66.7269 128.206 66.8122 128.024 66.8336 127.811C66.8549 127.576 66.7909 127.384 66.6416 127.235C66.4922 127.086 66.3002 127.022 66.0656 127.043H65.7456C65.5109 127.064 65.2976 127.011 65.1056 126.883C64.9349 126.734 64.8176 126.552 64.7536 126.339C64.6683 125.998 64.5723 125.667 64.4656 125.347C64.3589 125.027 64.1989 124.782 63.9856 124.611C63.8362 124.44 63.6442 124.344 63.4096 124.323C63.1749 124.302 62.9616 124.355 62.7696 124.483C62.3002 124.846 61.8629 125.251 61.4576 125.699C61.0736 126.147 60.6469 126.563 60.1776 126.947C59.7082 127.31 59.1109 127.544 58.3856 127.651C58.1722 127.672 57.9802 127.619 57.8096 127.491C57.6389 127.342 57.5536 127.16 57.5536 126.947C57.5322 126.648 57.5749 126.328 57.6816 125.987C57.8096 125.646 57.9162 125.336 58.0016 125.059C58.1722 124.504 58.3856 124.056 58.6416 123.715C58.9189 123.374 59.1856 123.086 59.4416 122.851C59.4842 122.787 59.5269 122.734 59.5696 122.691C59.6336 122.648 59.7082 122.606 59.7936 122.563C60.4122 122.222 61.0949 122.051 61.8416 122.051C62.5882 122.051 63.2282 122.296 63.7616 122.787C63.9962 122.979 64.2842 123.043 64.6256 122.979C64.7962 122.936 64.9029 122.84 64.9456 122.691C65.0096 122.542 64.9883 122.392 64.8816 122.243C64.4336 121.582 63.9002 121.048 63.2816 120.643C62.6842 120.238 61.9802 119.96 61.1696 119.811C60.2096 119.64 59.3242 119.779 58.5136 120.227C57.7029 120.654 57.0522 121.251 56.5616 122.019C56.3269 122.403 56.0709 122.883 55.7936 123.459C55.5376 124.014 55.3562 124.536 55.2496 125.027C55.1002 125.667 55.1322 126.275 55.3456 126.851C55.5589 127.406 55.8042 127.928 56.0816 128.419C56.2522 128.696 56.4762 128.92 56.7536 129.091C56.8176 129.112 56.8709 129.144 56.9136 129.187L57.0416 129.315C57.2976 129.528 57.5749 129.667 57.8736 129.731C58.2149 129.816 58.5776 129.87 58.9616 129.891C59.3456 129.912 59.7189 129.891 60.0816 129.827C60.5509 129.784 60.9242 129.571 61.2016 129.187C61.3509 128.974 61.5109 128.803 61.6816 128.675C61.8736 128.547 62.0442 128.398 62.1936 128.227L62.4176 128.003C62.5029 127.918 62.5882 127.843 62.6736 127.779C62.8656 127.672 62.9722 127.566 62.9936 127.459C63.0576 127.331 63.1429 127.256 63.2496 127.235C63.3776 127.214 63.4842 127.256 63.5696 127.363C63.8469 127.64 64.1989 127.896 64.6256 128.131C65.0736 128.366 65.5322 128.504 66.0016 128.547C66.2363 128.568 66.4282 128.504 66.5776 128.355ZM80.5716 125.795C80.9342 125.39 81.0409 124.92 80.8916 124.387C80.8702 124.28 80.8489 124.184 80.8276 124.099C80.8062 124.014 80.7956 123.928 80.7956 123.843C80.8382 123.246 80.6889 122.744 80.3476 122.339C80.0062 121.912 79.5902 121.56 79.0996 121.283C78.6089 121.006 78.1502 120.76 77.7236 120.547L77.4676 120.419C77.3822 120.376 77.2969 120.344 77.2116 120.323C76.7422 120.28 76.3262 120.259 75.9636 120.259C75.6222 120.238 75.2809 120.152 74.9396 120.003C74.6836 119.939 74.4276 119.907 74.1716 119.907C73.2756 119.95 72.4649 120.28 71.7396 120.899C71.0356 121.518 70.6302 122.36 70.5236 123.427C70.5023 123.704 70.5129 124.088 70.5556 124.579C70.5982 125.07 70.7582 125.518 71.0356 125.923C71.4196 126.456 71.9422 126.915 72.6036 127.299C73.2862 127.662 73.9796 127.896 74.6836 128.003C75.1102 128.088 75.4836 128.12 75.8036 128.099C76.1449 128.078 76.5076 128.035 76.8916 127.971C77.0622 127.928 77.2116 127.971 77.3396 128.099C77.4676 128.227 77.5209 128.376 77.4996 128.547C77.3076 129.976 76.8916 131.086 76.2516 131.875C75.6116 132.664 74.5023 133.102 72.9236 133.187C72.4756 133.208 72.0809 133.07 71.7396 132.771C71.6116 132.664 71.4729 132.579 71.3236 132.515C71.1956 132.451 71.0676 132.398 70.9396 132.355C70.7902 132.291 70.6516 132.216 70.5236 132.131C70.3956 132.046 70.2782 131.939 70.1716 131.811C70.1502 131.79 70.0969 131.758 70.0116 131.715C69.7982 131.672 69.6169 131.715 69.4676 131.843C69.3182 131.971 69.2542 132.142 69.2756 132.355C69.3182 132.675 69.4782 133.016 69.7556 133.379C70.0542 133.763 70.3956 134.104 70.7796 134.403C71.1636 134.723 71.5156 134.958 71.8356 135.107C72.0276 135.192 72.2729 135.267 72.5716 135.331C72.8916 135.416 73.1689 135.47 73.4036 135.491C73.8729 135.534 74.3529 135.502 74.8436 135.395C75.3343 135.288 75.7182 135.16 75.9956 135.011C76.3582 134.84 76.7103 134.648 77.0516 134.435C77.4142 134.222 77.6169 134.083 77.6596 134.019C77.8516 133.848 78.0649 133.646 78.2996 133.411C78.5556 133.198 78.7369 132.984 78.8436 132.771C78.8649 132.728 78.8756 132.654 78.8756 132.547C78.8756 132.462 78.8969 132.408 78.9396 132.387C78.9609 132.344 79.0036 132.312 79.0676 132.291C79.1529 132.27 79.2169 132.248 79.2596 132.227C79.4302 131.886 79.5262 131.523 79.5476 131.139C79.5902 130.776 79.6329 130.36 79.6756 129.891C79.7182 129.72 79.7716 129.56 79.8356 129.411C79.9209 129.283 79.9529 129.134 79.9316 128.963C79.9102 128.686 79.8462 128.419 79.7396 128.163C79.6329 127.886 79.5583 127.598 79.5156 127.299C79.5156 127.064 79.4302 126.894 79.2596 126.787C79.1742 126.744 79.1423 126.68 79.1636 126.595C79.1849 126.51 79.2383 126.467 79.3236 126.467C79.7929 126.424 80.2089 126.2 80.5716 125.795ZM77.6276 123.171C77.6702 123.32 77.6916 123.47 77.6916 123.619C77.7342 123.896 77.6169 124.11 77.3396 124.259H77.2756C77.1476 124.259 77.0622 124.323 77.0196 124.451C76.9982 124.536 76.9982 124.611 77.0196 124.675L77.0836 124.867C77.1476 124.952 77.1582 125.048 77.1156 125.155C77.0729 125.24 76.9982 125.304 76.8916 125.347C76.4649 125.411 76.0169 125.507 75.5476 125.635C75.0996 125.742 74.6729 125.806 74.2676 125.827C73.8622 125.848 73.5209 125.763 73.2436 125.571C72.8382 125.336 72.6889 124.942 72.7956 124.387C72.9236 124.024 73.0729 123.694 73.2436 123.395C73.4356 123.096 73.7129 122.872 74.0756 122.723C74.0969 122.723 74.1716 122.702 74.2996 122.659C74.3849 122.659 74.4596 122.627 74.5236 122.563C74.6942 122.563 74.8542 122.531 75.0036 122.467C75.2383 122.36 75.5262 122.328 75.8676 122.371C76.2089 122.392 76.4969 122.35 76.7316 122.243C76.9236 122.2 77.0836 122.232 77.2116 122.339C77.2969 122.36 77.3609 122.414 77.4036 122.499C77.4463 122.563 77.4889 122.638 77.5316 122.723C77.5742 122.872 77.6062 123.022 77.6276 123.171ZM94.0608 123.459C94.4022 123.075 94.4235 122.659 94.1248 122.211C93.6982 121.571 93.1008 121.07 92.3328 120.707C91.5648 120.323 90.7542 120.12 89.9008 120.099C89.0475 120.056 88.2688 120.238 87.5648 120.643C87.2235 120.856 86.9035 121.027 86.6048 121.155C86.3062 121.262 86.0395 121.454 85.8048 121.731C85.4848 122.136 85.2182 122.691 85.0048 123.395C84.7915 124.099 84.6955 124.814 84.7168 125.539C84.7382 126.243 84.9195 126.83 85.2608 127.299C85.2822 127.363 85.3035 127.416 85.3248 127.459C85.3675 127.502 85.3995 127.544 85.4208 127.587C85.6982 128.142 86.0715 128.536 86.5408 128.771C87.0315 128.984 87.5648 129.123 88.1408 129.187C88.7168 129.251 89.2715 129.326 89.8048 129.411C89.9755 129.475 90.1462 129.475 90.3168 129.411C90.7435 129.368 91.1168 129.315 91.4368 129.251C91.7782 129.208 92.1302 129.144 92.4928 129.059C92.5995 129.016 92.7168 128.974 92.8448 128.931C92.9728 128.867 93.0795 128.792 93.1648 128.707C93.1862 128.664 93.2075 128.643 93.2288 128.643C93.2502 128.643 93.2608 128.632 93.2608 128.611C93.4528 128.504 93.5808 128.344 93.6448 128.131C93.7302 127.918 93.7195 127.704 93.6128 127.491C93.6128 127.448 93.5915 127.406 93.5488 127.363C93.5275 127.32 93.5062 127.288 93.4848 127.267C93.3782 127.096 93.2182 126.979 93.0048 126.915C92.8128 126.851 92.6315 126.84 92.4608 126.883C92.0128 126.968 91.5115 127.075 90.9568 127.203C90.4022 127.331 89.8582 127.406 89.3248 127.427C88.7915 127.448 88.3222 127.363 87.9168 127.171C87.6395 127 87.3835 126.712 87.1488 126.307C86.9355 125.88 86.8502 125.464 86.8928 125.059C86.8928 124.888 86.9675 124.782 87.1168 124.739C87.2662 124.675 87.4048 124.696 87.5328 124.803L87.7888 125.059C87.8742 125.123 87.9595 125.198 88.0448 125.283C88.3862 125.624 88.8128 125.731 89.3248 125.603C89.5382 125.56 89.7408 125.507 89.9328 125.443C90.1248 125.358 90.3382 125.283 90.5728 125.219C90.9355 125.155 91.3195 125.102 91.7248 125.059C92.1302 125.016 92.5035 124.931 92.8448 124.803C93.1862 124.654 93.4422 124.408 93.6128 124.067C93.6768 123.854 93.7942 123.662 93.9648 123.491H93.9968C94.0182 123.47 94.0395 123.459 94.0608 123.459ZM91.9168 122.019C91.9808 122.04 92.0235 122.083 92.0448 122.147C92.1515 122.254 92.1515 122.382 92.0448 122.531C91.8742 122.702 91.6928 122.851 91.5008 122.979C91.0315 123.192 90.4982 123.363 89.9008 123.491C89.3035 123.598 88.7275 123.608 88.1728 123.523C88.0022 123.502 87.8848 123.406 87.8208 123.235C87.7782 123.064 87.8315 122.936 87.9808 122.851C88.1942 122.702 88.4395 122.595 88.7168 122.531C89.0155 122.446 89.3035 122.339 89.5808 122.211C89.7088 122.168 89.7942 122.126 89.8368 122.083C89.9008 122.04 90.1462 122.008 90.5728 121.987C91.0208 121.944 91.4048 121.923 91.7248 121.923C91.7888 121.944 91.8528 121.976 91.9168 122.019ZM122.57 115.587C122.57 115.523 122.58 115.48 122.602 115.459C122.666 114.947 122.495 114.584 122.09 114.371C121.663 114.136 121.194 114.051 120.682 114.115C120.17 114.179 119.86 114.488 119.754 115.043C119.732 115.171 119.69 115.288 119.626 115.395C119.583 115.48 119.53 115.576 119.466 115.683C118.847 116.664 118.25 117.678 117.674 118.723C117.098 119.768 116.5 120.803 115.882 121.827C115.284 122.83 114.623 123.758 113.898 124.611C113.194 125.464 112.372 126.19 111.434 126.787C111.284 126.894 111.114 126.915 110.922 126.851C110.751 126.766 110.644 126.638 110.602 126.467C110.538 126.168 110.495 125.891 110.474 125.635C110.474 125.358 110.463 125.08 110.442 124.803C110.42 124.504 110.356 124.206 110.25 123.907C110.143 123.608 110.068 123.288 110.026 122.947C110.004 122.648 109.994 122.36 109.994 122.083C110.015 121.784 110.004 121.496 109.962 121.219C109.876 120.664 109.834 120.216 109.834 119.875C109.855 119.512 109.866 119.064 109.866 118.531C109.866 118.424 109.855 118.307 109.834 118.179C109.812 118.03 109.802 117.891 109.802 117.763C109.823 117.336 109.876 116.878 109.962 116.387C110.068 115.875 110.068 115.395 109.962 114.947C109.876 114.584 109.684 114.232 109.386 113.891C109.108 113.528 108.767 113.251 108.362 113.059C107.978 112.846 107.572 112.782 107.146 112.867H106.922C106.516 112.867 106.292 113.059 106.25 113.443C106.1 114.36 106.047 115.342 106.09 116.387C106.154 117.411 106.228 118.296 106.314 119.043C106.356 119.278 106.356 119.534 106.314 119.811C106.292 120.067 106.292 120.312 106.314 120.547C106.527 122.104 106.815 123.619 107.178 125.091C107.562 126.563 108.212 127.822 109.13 128.867C109.236 128.952 109.332 129.038 109.418 129.123C109.524 129.208 109.652 129.283 109.802 129.347C109.972 129.411 110.132 129.475 110.282 129.539L110.73 129.795C111.156 129.966 111.583 129.976 112.01 129.827C112.138 129.784 112.276 129.742 112.426 129.699C112.596 129.678 112.778 129.656 112.97 129.635C113.14 129.592 113.29 129.528 113.418 129.443C113.546 129.379 113.674 129.304 113.802 129.219L115.466 127.619C116.02 127.064 116.554 126.488 117.066 125.891C117.194 125.763 117.29 125.614 117.354 125.443C117.652 124.782 118.004 124.184 118.41 123.651C118.815 123.096 119.199 122.52 119.562 121.923C119.69 121.752 119.732 121.528 119.69 121.251C119.69 121.166 119.7 121.102 119.722 121.059C120.02 120.675 120.276 120.259 120.49 119.811C120.703 119.363 120.927 118.947 121.162 118.563C121.226 118.456 121.279 118.36 121.322 118.275C121.364 118.168 121.386 118.051 121.386 117.923C121.428 117.71 121.492 117.496 121.578 117.283C121.684 117.07 121.812 116.888 121.962 116.739C122.303 116.44 122.484 116.11 122.506 115.747C122.548 115.704 122.57 115.651 122.57 115.587ZM127.299 128.643C127.341 128.536 127.384 128.419 127.427 128.291C127.491 127.928 127.48 127.598 127.395 127.299C127.267 126.851 126.979 126.52 126.531 126.307C126.061 126.072 125.549 125.976 124.995 126.019C124.781 126.04 124.579 126.126 124.387 126.275C124.195 126.403 124.077 126.584 124.035 126.819C124.013 126.883 123.992 126.958 123.971 127.043C123.949 127.107 123.928 127.182 123.907 127.267C123.779 127.715 123.875 128.12 124.195 128.483C124.451 128.782 124.739 129.048 125.059 129.283C125.4 129.539 125.752 129.667 126.115 129.667C126.648 129.71 127 129.475 127.171 128.963C127.235 128.856 127.277 128.75 127.299 128.643ZM146.694 116.739V116.483C146.737 116.12 146.726 115.832 146.662 115.619C146.62 115.406 146.513 115.182 146.342 114.947C146.257 114.84 146.193 114.734 146.15 114.627C146.129 114.499 146.097 114.371 146.054 114.243C146.041 114.243 146.031 114.239 146.027 114.23C146.024 114.225 146.022 114.219 146.022 114.211C145.382 113.678 144.614 113.294 143.718 113.059C142.822 112.824 141.969 112.696 141.158 112.675C140.348 112.632 139.74 112.675 139.334 112.803C139.228 112.846 139.142 112.931 139.078 113.059C139.036 113.187 139.036 113.304 139.078 113.411C139.121 113.496 139.174 113.592 139.238 113.699C139.324 113.784 139.43 113.838 139.558 113.859C139.985 113.966 140.465 114.094 140.998 114.243C141.553 114.371 142.065 114.616 142.534 114.979C142.684 115.064 142.801 115.171 142.886 115.299C142.993 115.427 143.089 115.576 143.174 115.747C143.537 116.536 143.558 117.219 143.238 117.795C142.918 118.35 142.513 118.904 142.022 119.459C141.532 119.992 140.945 120.43 140.262 120.771C139.58 121.112 138.918 121.464 138.278 121.827C138.086 121.912 137.969 122.062 137.926 122.275C137.905 122.467 137.969 122.638 138.118 122.787C138.161 122.808 138.193 122.851 138.214 122.915C138.236 122.958 138.268 123 138.31 123.043C138.374 123.15 138.449 123.256 138.534 123.363C138.641 123.448 138.737 123.534 138.822 123.619C139.206 123.832 139.58 123.907 139.942 123.843C140.881 123.736 141.756 123.47 142.566 123.043C143.398 122.616 144.049 122.072 144.518 121.411C144.582 121.304 144.689 121.208 144.838 121.123C144.945 121.059 145.03 120.952 145.094 120.803C145.286 120.44 145.51 120.088 145.766 119.747C146.022 119.384 146.161 118.979 146.182 118.531C146.204 118.318 146.289 118.104 146.438 117.891C146.481 117.806 146.513 117.71 146.534 117.603L146.598 117.283C146.598 117.07 146.63 116.888 146.694 116.739ZM137.798 117.667C137.969 117.347 138.097 117.027 138.182 116.707C138.31 116.238 138.214 115.79 137.894 115.363C137.745 115.171 137.574 114.979 137.382 114.787C137.212 114.574 137.009 114.392 136.774 114.243C136.604 114.136 136.412 114.115 136.198 114.179C135.985 114.222 135.825 114.328 135.718 114.499C135.1 115.416 134.63 116.504 134.31 117.763C133.99 119 133.628 120.216 133.222 121.411C132.881 122.456 132.582 123.502 132.326 124.547C132.07 125.571 131.846 126.67 131.654 127.843C131.59 128.312 131.697 128.76 131.974 129.187L132.294 129.507C132.422 129.635 132.561 129.742 132.71 129.827C133.201 130.04 133.617 129.944 133.958 129.539C134.15 129.304 134.31 129.048 134.438 128.771C134.588 128.472 134.662 128.184 134.662 127.907C134.662 127.758 134.684 127.619 134.726 127.491C134.769 127.363 134.812 127.246 134.854 127.139C135.025 126.798 135.164 126.435 135.27 126.051C135.398 125.667 135.526 125.251 135.654 124.803L135.846 124.099C135.932 123.843 136.006 123.598 136.07 123.363C136.22 122.83 136.369 122.371 136.518 121.987C136.668 121.603 136.806 121.24 136.934 120.899C137.041 120.579 137.105 120.216 137.126 119.811C137.148 119.384 137.222 119 137.35 118.659C137.5 118.296 137.649 117.966 137.798 117.667ZM159.453 128.355C159.602 128.206 159.687 128.024 159.709 127.811C159.73 127.576 159.666 127.384 159.517 127.235C159.367 127.086 159.175 127.022 158.941 127.043H158.621C158.386 127.064 158.173 127.011 157.981 126.883C157.81 126.734 157.693 126.552 157.629 126.339C157.543 125.998 157.447 125.667 157.341 125.347C157.234 125.027 157.074 124.782 156.861 124.611C156.711 124.44 156.519 124.344 156.285 124.323C156.05 124.302 155.837 124.355 155.645 124.483C155.175 124.846 154.738 125.251 154.333 125.699C153.949 126.147 153.522 126.563 153.053 126.947C152.583 127.31 151.986 127.544 151.261 127.651C151.047 127.672 150.855 127.619 150.685 127.491C150.514 127.342 150.429 127.16 150.429 126.947C150.407 126.648 150.45 126.328 150.557 125.987C150.685 125.646 150.791 125.336 150.877 125.059C151.047 124.504 151.261 124.056 151.517 123.715C151.794 123.374 152.061 123.086 152.317 122.851C152.359 122.787 152.402 122.734 152.445 122.691C152.509 122.648 152.583 122.606 152.669 122.563C153.287 122.222 153.97 122.051 154.717 122.051C155.463 122.051 156.103 122.296 156.637 122.787C156.871 122.979 157.159 123.043 157.501 122.979C157.671 122.936 157.778 122.84 157.821 122.691C157.885 122.542 157.863 122.392 157.757 122.243C157.309 121.582 156.775 121.048 156.157 120.643C155.559 120.238 154.855 119.96 154.045 119.811C153.085 119.64 152.199 119.779 151.389 120.227C150.578 120.654 149.927 121.251 149.437 122.019C149.202 122.403 148.946 122.883 148.669 123.459C148.413 124.014 148.231 124.536 148.125 125.027C147.975 125.667 148.007 126.275 148.221 126.851C148.434 127.406 148.679 127.928 148.957 128.419C149.127 128.696 149.351 128.92 149.629 129.091C149.693 129.112 149.746 129.144 149.789 129.187L149.917 129.315C150.173 129.528 150.45 129.667 150.749 129.731C151.09 129.816 151.453 129.87 151.837 129.891C152.221 129.912 152.594 129.891 152.957 129.827C153.426 129.784 153.799 129.571 154.077 129.187C154.226 128.974 154.386 128.803 154.557 128.675C154.749 128.547 154.919 128.398 155.069 128.227L155.293 128.003C155.378 127.918 155.463 127.843 155.549 127.779C155.741 127.672 155.847 127.566 155.869 127.459C155.933 127.331 156.018 127.256 156.125 127.235C156.253 127.214 156.359 127.256 156.445 127.363C156.722 127.64 157.074 127.896 157.501 128.131C157.949 128.366 158.407 128.504 158.877 128.547C159.111 128.568 159.303 128.504 159.453 128.355ZM173.448 122.851C173.597 122.659 173.618 122.456 173.512 122.243C173.405 121.966 173.224 121.72 172.968 121.507C172.733 121.272 172.466 121.08 172.168 120.931C171.762 120.718 171.378 120.654 171.016 120.739C170.482 120.824 169.906 121.016 169.288 121.315C168.669 121.614 168.029 122.179 167.368 123.011C167.283 123.139 167.165 123.182 167.016 123.139C166.888 123.075 166.835 122.968 166.856 122.819C166.962 121.902 166.952 121.219 166.824 120.771C166.717 120.323 166.525 120.014 166.248 119.843C165.971 119.672 165.64 119.566 165.256 119.523C165.064 119.502 164.904 119.566 164.776 119.715C164.648 119.864 164.605 120.035 164.648 120.227C164.69 120.419 164.69 120.632 164.648 120.867C164.499 121.614 164.328 122.446 164.136 123.363C163.965 124.259 163.816 125.134 163.688 125.987C163.56 126.819 163.507 127.523 163.528 128.099C163.57 128.654 163.741 128.963 164.04 129.027C164.189 129.027 164.328 129.059 164.456 129.123C164.626 129.187 164.808 129.198 165 129.155C165.213 129.112 165.373 129.016 165.48 128.867C165.572 128.764 165.66 128.663 165.746 128.566L165.824 128.478L165.96 128.323C166.13 128.131 166.28 127.918 166.408 127.683C166.472 127.576 166.546 127.47 166.632 127.363C166.738 127.235 166.845 127.128 166.952 127.043C167.08 126.936 167.208 126.84 167.336 126.755C167.464 126.648 167.57 126.52 167.656 126.371C167.741 126.264 167.826 126.168 167.912 126.083C168.018 125.976 168.115 125.87 168.2 125.763C168.541 125.443 168.872 125.102 169.192 124.739C169.533 124.355 169.928 124.046 170.376 123.811C170.589 123.704 170.824 123.544 171.08 123.331C171.357 123.118 171.507 123 171.528 122.979C171.699 122.915 171.912 122.915 172.168 122.979C172.445 123.022 172.701 123.064 172.936 123.107C173.149 123.128 173.32 123.043 173.448 122.851ZM187.292 122.851C187.441 122.659 187.462 122.456 187.356 122.243C187.249 121.966 187.068 121.72 186.812 121.507C186.577 121.272 186.31 121.08 186.012 120.931C185.606 120.718 185.222 120.654 184.86 120.739C184.326 120.824 183.75 121.016 183.132 121.315C182.513 121.614 181.873 122.179 181.212 123.011C181.126 123.139 181.009 123.182 180.86 123.139C180.732 123.075 180.678 122.968 180.7 122.819C180.806 121.902 180.796 121.219 180.668 120.771C180.561 120.323 180.369 120.014 180.092 119.843C179.814 119.672 179.484 119.566 179.1 119.523C178.908 119.502 178.748 119.566 178.62 119.715C178.492 119.864 178.449 120.035 178.492 120.227C178.534 120.419 178.534 120.632 178.492 120.867C178.342 121.614 178.172 122.446 177.98 123.363C177.809 124.259 177.66 125.134 177.532 125.987C177.404 126.819 177.35 127.523 177.372 128.099C177.414 128.654 177.585 128.963 177.884 129.027C178.033 129.027 178.172 129.059 178.3 129.123C178.47 129.187 178.652 129.198 178.844 129.155C179.057 129.112 179.217 129.016 179.324 128.867C179.494 128.675 179.654 128.494 179.804 128.323C179.974 128.131 180.124 127.918 180.252 127.683C180.316 127.576 180.39 127.47 180.476 127.363C180.582 127.235 180.689 127.128 180.796 127.043C180.924 126.936 181.052 126.84 181.18 126.755C181.308 126.648 181.414 126.52 181.5 126.371C181.585 126.264 181.67 126.168 181.756 126.083C181.862 125.976 181.958 125.87 182.044 125.763C182.385 125.443 182.716 125.102 183.036 124.739C183.377 124.355 183.772 124.046 184.22 123.811C184.433 123.704 184.668 123.544 184.924 123.331C185.201 123.118 185.35 123 185.372 122.979C185.542 122.915 185.756 122.915 186.012 122.979C186.289 123.022 186.545 123.064 186.78 123.107C186.993 123.128 187.164 123.043 187.292 122.851ZM201.743 124.419C201.871 124.227 201.935 124.024 201.935 123.811C201.957 123.64 201.893 123.47 201.743 123.299C201.594 123.128 201.434 122.968 201.263 122.819C201.178 122.712 201.082 122.627 200.975 122.563L200.655 122.371C200.57 122.307 200.474 122.254 200.367 122.211L200.047 122.019C199.898 121.934 199.759 121.944 199.631 122.051C199.525 122.158 199.493 122.275 199.535 122.403C199.727 123 199.791 123.544 199.727 124.035C199.663 124.526 199.397 124.942 198.927 125.283C198.778 125.411 198.597 125.56 198.383 125.731C198.191 125.902 197.946 126.04 197.647 126.147C197.285 126.275 196.805 126.392 196.207 126.499C195.631 126.606 195.066 126.606 194.511 126.499C193.957 126.392 193.551 126.072 193.295 125.539C193.21 125.368 193.125 125.187 193.039 124.995C192.975 124.782 192.922 124.579 192.879 124.387C192.858 124.11 192.954 123.8 193.167 123.459C193.402 123.096 193.594 122.819 193.743 122.627C194.021 122.2 194.341 121.891 194.703 121.699C195.087 121.507 195.429 121.379 195.727 121.315C196.047 121.251 196.239 121.23 196.303 121.251C196.474 121.272 196.666 121.336 196.879 121.443C197.114 121.55 197.327 121.656 197.519 121.763C197.669 121.848 197.807 121.838 197.935 121.731C198.085 121.624 198.138 121.496 198.095 121.347C198.01 120.92 197.818 120.6 197.519 120.387C196.922 119.896 196.239 119.608 195.471 119.523C194.703 119.438 193.989 119.576 193.327 119.939C192.623 120.323 192.047 120.856 191.599 121.539C191.173 122.2 190.895 122.936 190.767 123.747C190.639 124.536 190.671 125.315 190.863 126.083C190.906 126.232 190.959 126.371 191.023 126.499C191.087 126.606 191.162 126.712 191.247 126.819C191.354 126.904 191.461 127.011 191.567 127.139C191.674 127.267 191.77 127.384 191.855 127.491C192.026 127.747 192.25 127.939 192.527 128.067C192.634 128.088 192.719 128.131 192.783 128.195L192.975 128.387C193.082 128.472 193.178 128.547 193.263 128.611C193.37 128.654 193.477 128.707 193.583 128.771C194.394 129.07 195.109 129.187 195.727 129.123C196.367 129.038 196.826 128.952 197.103 128.867C197.317 128.803 197.487 128.718 197.615 128.611C197.85 128.462 198.095 128.334 198.351 128.227C198.607 128.12 198.863 128.024 199.119 127.939C199.333 127.854 199.567 127.704 199.823 127.491C200.101 127.214 200.357 126.947 200.591 126.691C200.847 126.435 201.103 126.051 201.359 125.539C201.402 125.475 201.402 125.411 201.359 125.347C201.338 125.262 201.338 125.187 201.359 125.123C201.487 124.846 201.615 124.611 201.743 124.419ZM216.225 119.107C216.353 118.915 216.395 118.712 216.353 118.499C216.353 118.456 216.342 118.414 216.321 118.371V118.243C216.321 118.115 216.246 118.051 216.097 118.051C215.969 118.094 215.883 118.051 215.841 117.923C215.563 117.56 215.169 117.347 214.657 117.283C214.145 117.198 213.611 117.176 213.057 117.219C212.886 117.219 212.737 117.155 212.609 117.027C212.502 116.899 212.46 116.75 212.481 116.579C212.523 116.088 212.481 115.619 212.353 115.171C212.225 114.723 212.012 114.35 211.713 114.051C211.563 113.944 211.393 113.912 211.201 113.955C211.03 113.998 210.902 114.115 210.817 114.307C210.689 114.648 210.582 115 210.497 115.363C210.411 115.726 210.305 116.131 210.177 116.579C210.134 116.792 210.027 116.974 209.857 117.123C209.686 117.272 209.494 117.347 209.281 117.347C208.684 117.39 208.118 117.422 207.585 117.443C207.073 117.464 206.572 117.518 206.081 117.603C205.867 117.624 205.708 117.742 205.601 117.955C205.494 118.168 205.516 118.36 205.665 118.531C205.75 118.68 205.867 118.798 206.017 118.883C206.166 118.947 206.294 119.032 206.401 119.139C206.657 119.374 206.923 119.502 207.201 119.523C207.478 119.587 207.766 119.662 208.065 119.747C208.385 119.811 208.684 119.864 208.961 119.907C209.174 119.95 209.302 120.088 209.345 120.323C209.345 120.43 209.334 120.526 209.313 120.611C209.313 120.696 209.302 120.792 209.281 120.899C209.153 121.176 209.025 121.571 208.897 122.083C208.79 122.595 208.684 123.139 208.577 123.715C208.492 124.291 208.406 124.824 208.321 125.315C208.257 125.784 208.203 126.136 208.161 126.371C208.097 126.606 208.001 126.862 207.873 127.139C207.766 127.395 207.713 127.608 207.713 127.779C207.691 128.654 207.969 129.294 208.545 129.699C208.843 129.848 209.11 129.838 209.345 129.667C209.622 129.496 209.782 129.251 209.825 128.931C209.974 128.227 210.145 127.523 210.337 126.819C210.55 126.094 210.635 125.464 210.593 124.931C210.593 124.824 210.646 124.771 210.753 124.771C210.859 124.771 210.913 124.707 210.913 124.579C210.891 124.302 210.913 123.907 210.977 123.395C211.041 122.862 211.137 122.307 211.265 121.731C211.414 121.134 211.563 120.611 211.713 120.163C211.777 119.971 211.894 119.811 212.065 119.683C212.257 119.534 212.46 119.459 212.673 119.459C213.227 119.459 213.771 119.502 214.305 119.587C214.838 119.651 215.307 119.619 215.713 119.491C215.947 119.427 216.118 119.299 216.225 119.107Z" fill="#EEE2DE"/>
</svg>
