<svg width="713" height="387" viewBox="0 0 713 387" fill="none" xmlns="http://www.w3.org/2000/svg">
<path d="M265.429 308.077C265.386 308.311 265.237 308.482 264.981 308.589C264.896 308.61 264.81 308.621 264.725 308.621C264.661 308.621 264.576 308.631 264.469 308.653C264.021 308.717 263.744 308.973 263.637 309.421C263.573 309.634 263.488 309.837 263.381 310.029C263.274 310.199 263.21 310.37 263.189 310.541C263.168 310.818 263.061 311.085 262.869 311.341C262.698 311.597 262.528 311.874 262.357 312.173C262.186 312.45 261.973 312.706 261.717 312.941C261.525 313.09 261.322 313.261 261.109 313.453C260.917 313.623 260.725 313.762 260.533 313.869C260.192 314.082 259.818 314.306 259.413 314.541C259.029 314.775 258.645 314.925 258.261 314.989C257.642 315.074 256.949 315.021 256.181 314.829C255.434 314.637 254.773 314.327 254.197 313.901C253.642 313.453 253.322 312.909 253.237 312.269C253.237 312.183 253.184 312.119 253.077 312.077C252.97 312.013 252.917 311.927 252.917 311.821C252.768 310.925 252.661 310.103 252.597 309.357C252.533 308.61 252.544 307.863 252.629 307.117C252.736 306.349 252.938 305.495 253.237 304.557C253.621 303.383 254.208 302.285 254.997 301.261C255.786 300.237 256.693 299.426 257.717 298.829C258.762 298.231 259.829 298.007 260.917 298.157C261.344 298.178 261.866 298.359 262.485 298.701C263.125 299.042 263.648 299.373 264.053 299.693C264.266 299.842 264.32 300.098 264.213 300.461C264.106 300.802 263.978 300.994 263.829 301.037C263.616 301.058 263.381 301.047 263.125 301.005C262.89 300.962 262.645 300.919 262.389 300.877C262.325 300.834 262.261 300.813 262.197 300.813C262.154 300.791 262.112 300.77 262.069 300.749H262.037C261.93 300.834 261.749 300.898 261.493 300.941C261.024 301.069 260.554 301.261 260.085 301.517C259.637 301.751 259.242 301.986 258.901 302.221C258.794 302.306 258.677 302.423 258.549 302.573C258.272 302.935 258.016 303.33 257.781 303.757C257.568 304.183 257.312 304.557 257.013 304.877C256.928 304.919 256.864 304.983 256.821 305.069C256.778 305.133 256.736 305.207 256.693 305.293C256.416 305.933 256.16 306.615 255.925 307.341C255.712 308.066 255.488 308.77 255.253 309.453C255.232 309.559 255.21 309.666 255.189 309.773C255.189 309.858 255.189 309.954 255.189 310.061C255.21 310.466 255.264 310.775 255.349 310.989C255.434 311.181 255.552 311.394 255.701 311.629C255.829 311.778 255.957 311.906 256.085 312.013C256.234 312.119 256.405 312.205 256.597 312.269C257.344 312.525 257.994 312.535 258.549 312.301C259.125 312.045 259.648 311.671 260.117 311.181C260.586 310.669 261.034 310.146 261.461 309.613C261.589 309.485 261.632 309.335 261.589 309.165C261.568 308.973 261.472 308.834 261.301 308.749C261.045 308.578 260.789 308.386 260.533 308.173C260.298 307.938 260.138 307.65 260.053 307.309C260.01 307.095 260.032 306.914 260.117 306.765C260.224 306.594 260.384 306.498 260.597 306.477C261.024 306.391 261.482 306.285 261.973 306.157C262.485 306.029 262.858 305.997 263.093 306.061C263.285 306.082 263.434 306.167 263.541 306.317C263.648 306.445 263.765 306.53 263.893 306.573C264.064 306.658 264.234 306.701 264.405 306.701C264.597 306.679 264.768 306.722 264.917 306.829C265.024 306.914 265.109 307.01 265.173 307.117C265.237 307.223 265.28 307.33 265.301 307.437C265.386 307.607 265.429 307.821 265.429 308.077ZM280.993 313.261C280.972 313.474 280.887 313.655 280.737 313.805C280.588 313.954 280.396 314.018 280.161 313.997C279.692 313.954 279.233 313.815 278.785 313.581C278.359 313.346 278.007 313.09 277.729 312.813C277.644 312.706 277.537 312.663 277.409 312.685C277.303 312.706 277.217 312.781 277.153 312.909C277.132 313.015 277.025 313.122 276.833 313.229C276.748 313.293 276.663 313.367 276.577 313.453C276.513 313.517 276.439 313.591 276.353 313.677C276.204 313.847 276.033 313.997 275.841 314.125C275.671 314.253 275.511 314.423 275.361 314.637C275.084 315.021 274.711 315.234 274.241 315.277C273.879 315.341 273.505 315.362 273.121 315.341C272.737 315.319 272.375 315.266 272.033 315.181C271.735 315.117 271.457 314.978 271.201 314.765C271.159 314.722 271.116 314.679 271.073 314.637C271.031 314.594 270.977 314.562 270.913 314.541C270.636 314.37 270.412 314.146 270.241 313.869C269.964 313.378 269.719 312.855 269.505 312.301C269.292 311.725 269.26 311.117 269.409 310.477C269.516 309.986 269.697 309.463 269.953 308.909C270.231 308.333 270.487 307.853 270.721 307.469C271.212 306.701 271.863 306.103 272.673 305.677C273.484 305.229 274.369 305.09 275.329 305.261C276.14 305.41 276.844 305.687 277.441 306.093C278.06 306.498 278.593 307.031 279.041 307.693C279.148 307.842 279.169 307.991 279.105 308.141C279.063 308.29 278.956 308.386 278.785 308.429C278.444 308.493 278.156 308.429 277.921 308.237C277.388 307.746 276.748 307.501 276.001 307.501C275.255 307.501 274.572 307.671 273.953 308.013C273.868 308.055 273.793 308.098 273.729 308.141C273.687 308.183 273.644 308.237 273.601 308.301C273.345 308.535 273.079 308.823 272.801 309.165C272.545 309.506 272.332 309.954 272.161 310.509C272.076 310.786 271.969 311.095 271.841 311.437C271.735 311.778 271.692 312.098 271.713 312.397C271.713 312.61 271.799 312.791 271.969 312.941C272.14 313.069 272.332 313.122 272.545 313.101C273.271 312.994 273.868 312.759 274.337 312.397C274.807 312.013 275.233 311.597 275.617 311.149C276.023 310.701 276.46 310.295 276.929 309.933C277.121 309.805 277.335 309.751 277.569 309.773C277.804 309.794 277.996 309.89 278.145 310.061C278.359 310.231 278.519 310.477 278.625 310.797C278.732 311.117 278.828 311.447 278.913 311.789C278.977 312.002 279.095 312.183 279.265 312.333C279.457 312.461 279.671 312.514 279.905 312.493H280.225C280.46 312.471 280.652 312.535 280.801 312.685C280.951 312.834 281.015 313.026 280.993 313.261ZM294.797 307.693C294.903 307.906 294.882 308.109 294.733 308.301C294.605 308.493 294.434 308.578 294.221 308.557C293.986 308.514 293.73 308.471 293.453 308.429C293.197 308.365 292.983 308.365 292.813 308.429C292.791 308.45 292.642 308.567 292.365 308.781C292.109 308.994 291.874 309.154 291.661 309.261C291.213 309.495 290.818 309.805 290.477 310.189C290.157 310.551 289.826 310.893 289.485 311.213C289.399 311.319 289.303 311.426 289.197 311.533C289.111 311.618 289.026 311.714 288.941 311.821C288.855 311.97 288.749 312.098 288.621 312.205C288.493 312.29 288.365 312.386 288.237 312.493C288.13 312.578 288.023 312.685 287.917 312.813C287.831 312.919 287.757 313.026 287.693 313.133C287.565 313.367 287.415 313.581 287.245 313.773C287.095 313.943 286.935 314.125 286.765 314.317C286.658 314.466 286.498 314.562 286.285 314.605C286.093 314.647 285.911 314.637 285.741 314.573C285.613 314.509 285.474 314.477 285.325 314.477C285.026 314.413 284.855 314.103 284.813 313.549C284.791 312.973 284.845 312.269 284.973 311.437C285.101 310.583 285.25 309.709 285.421 308.813C285.613 307.895 285.783 307.063 285.933 306.317C285.975 306.082 285.975 305.869 285.933 305.677C285.89 305.485 285.933 305.314 286.061 305.165C286.189 305.015 286.349 304.951 286.541 304.973C286.925 305.015 287.255 305.122 287.533 305.293C287.81 305.463 288.002 305.773 288.109 306.221C288.237 306.669 288.247 307.351 288.141 308.269C288.119 308.418 288.173 308.525 288.301 308.589C288.45 308.631 288.567 308.589 288.653 308.461C289.314 307.629 289.954 307.063 290.573 306.765C291.191 306.466 291.767 306.274 292.301 306.189C292.663 306.103 293.047 306.167 293.453 306.381C293.751 306.53 294.018 306.722 294.253 306.957C294.509 307.17 294.69 307.415 294.797 307.693ZM310.368 313.261C310.347 313.474 310.262 313.655 310.112 313.805C309.963 313.954 309.771 314.018 309.536 313.997C309.067 313.954 308.608 313.815 308.16 313.581C307.734 313.346 307.382 313.09 307.104 312.813C307.019 312.706 306.912 312.663 306.784 312.685C306.678 312.706 306.592 312.781 306.528 312.909C306.507 313.015 306.4 313.122 306.208 313.229C306.123 313.293 306.038 313.367 305.952 313.453C305.888 313.517 305.814 313.591 305.728 313.677C305.579 313.847 305.408 313.997 305.216 314.125C305.046 314.253 304.886 314.423 304.736 314.637C304.459 315.021 304.086 315.234 303.616 315.277C303.254 315.341 302.88 315.362 302.496 315.341C302.112 315.319 301.75 315.266 301.408 315.181C301.11 315.117 300.832 314.978 300.576 314.765C300.534 314.722 300.491 314.679 300.448 314.637C300.406 314.594 300.352 314.562 300.288 314.541C300.011 314.37 299.787 314.146 299.616 313.869C299.339 313.378 299.094 312.855 298.88 312.301C298.667 311.725 298.635 311.117 298.784 310.477C298.891 309.986 299.072 309.463 299.328 308.909C299.606 308.333 299.862 307.853 300.096 307.469C300.587 306.701 301.238 306.103 302.048 305.677C302.859 305.229 303.744 305.09 304.704 305.261C305.515 305.41 306.219 305.687 306.816 306.093C307.435 306.498 307.968 307.031 308.416 307.693C308.523 307.842 308.544 307.991 308.48 308.141C308.438 308.29 308.331 308.386 308.16 308.429C307.819 308.493 307.531 308.429 307.296 308.237C306.763 307.746 306.123 307.501 305.376 307.501C304.63 307.501 303.947 307.671 303.328 308.013C303.243 308.055 303.168 308.098 303.104 308.141C303.062 308.183 303.019 308.237 302.976 308.301C302.72 308.535 302.454 308.823 302.176 309.165C301.92 309.506 301.707 309.954 301.536 310.509C301.451 310.786 301.344 311.095 301.216 311.437C301.11 311.778 301.067 312.098 301.088 312.397C301.088 312.61 301.174 312.791 301.344 312.941C301.515 313.069 301.707 313.122 301.92 313.101C302.646 312.994 303.243 312.759 303.712 312.397C304.182 312.013 304.608 311.597 304.992 311.149C305.398 310.701 305.835 310.295 306.304 309.933C306.496 309.805 306.71 309.751 306.944 309.773C307.179 309.794 307.371 309.89 307.52 310.061C307.734 310.231 307.894 310.477 308 310.797C308.107 311.117 308.203 311.447 308.288 311.789C308.352 312.002 308.47 312.183 308.64 312.333C308.832 312.461 309.046 312.514 309.28 312.493H309.6C309.835 312.471 310.027 312.535 310.176 312.685C310.326 312.834 310.39 313.026 310.368 313.261ZM324.426 309.837C324.576 310.37 324.469 310.839 324.106 311.245C323.744 311.65 323.328 311.874 322.858 311.917C322.773 311.917 322.72 311.959 322.698 312.045C322.677 312.13 322.709 312.194 322.794 312.237C322.965 312.343 323.05 312.514 323.05 312.749C323.093 313.047 323.168 313.335 323.274 313.613C323.381 313.869 323.445 314.135 323.466 314.413C323.488 314.583 323.456 314.733 323.37 314.861C323.306 315.01 323.253 315.17 323.21 315.341C323.168 315.81 323.125 316.226 323.082 316.589C323.061 316.973 322.965 317.335 322.794 317.677C322.752 317.698 322.688 317.719 322.602 317.741C322.538 317.762 322.496 317.794 322.474 317.837C322.432 317.858 322.41 317.911 322.41 317.997C322.41 318.103 322.4 318.178 322.378 318.221C322.272 318.434 322.09 318.647 321.834 318.861C321.6 319.095 321.386 319.298 321.194 319.469C321.152 319.533 320.949 319.671 320.586 319.885C320.245 320.098 319.893 320.29 319.53 320.461C319.253 320.61 318.869 320.738 318.378 320.845C317.888 320.951 317.408 320.983 316.938 320.941C316.704 320.919 316.426 320.866 316.106 320.781C315.808 320.717 315.562 320.642 315.37 320.557C315.05 320.407 314.698 320.173 314.314 319.853C313.93 319.554 313.589 319.213 313.29 318.829C313.013 318.466 312.853 318.125 312.81 317.805C312.789 317.591 312.853 317.421 313.002 317.293C313.152 317.165 313.333 317.122 313.546 317.165C313.632 317.207 313.685 317.239 313.706 317.261C313.813 317.389 313.93 317.495 314.058 317.581C314.186 317.666 314.325 317.741 314.474 317.805C314.602 317.847 314.73 317.901 314.858 317.965C315.008 318.029 315.146 318.114 315.274 318.221C315.616 318.519 316.01 318.658 316.458 318.637C318.037 318.551 319.146 318.114 319.786 317.325C320.426 316.535 320.842 315.426 321.034 313.997C321.056 313.826 321.002 313.677 320.874 313.549C320.746 313.421 320.597 313.378 320.426 313.421C320.042 313.485 319.68 313.527 319.338 313.549C319.018 313.57 318.645 313.538 318.218 313.453C317.514 313.346 316.821 313.111 316.138 312.749C315.477 312.365 314.954 311.906 314.57 311.373C314.293 310.967 314.133 310.519 314.09 310.029C314.048 309.538 314.037 309.154 314.058 308.877C314.165 307.81 314.57 306.967 315.274 306.349C316 305.73 316.81 305.399 317.706 305.357C317.962 305.357 318.218 305.389 318.474 305.453C318.816 305.602 319.157 305.687 319.498 305.709C319.861 305.709 320.277 305.73 320.746 305.773C320.832 305.794 320.917 305.826 321.002 305.869C321.088 305.911 321.173 305.954 321.258 305.997C321.685 306.21 322.144 306.455 322.634 306.733C323.125 307.01 323.541 307.362 323.882 307.789C324.224 308.194 324.373 308.695 324.33 309.293C324.33 309.378 324.341 309.463 324.362 309.549C324.384 309.634 324.405 309.73 324.426 309.837ZM321.226 309.069C321.226 308.919 321.205 308.77 321.162 308.621C321.141 308.471 321.109 308.322 321.066 308.173C321.024 308.087 320.981 308.013 320.938 307.949C320.896 307.863 320.832 307.81 320.746 307.789C320.618 307.682 320.458 307.65 320.266 307.693C320.032 307.799 319.744 307.842 319.402 307.821C319.061 307.778 318.773 307.81 318.538 307.917C318.389 307.981 318.229 308.013 318.058 308.013C317.994 308.077 317.92 308.109 317.834 308.109C317.706 308.151 317.632 308.173 317.61 308.173C317.248 308.322 316.97 308.546 316.778 308.845C316.608 309.143 316.458 309.474 316.33 309.837C316.224 310.391 316.373 310.786 316.778 311.021C317.056 311.213 317.397 311.298 317.802 311.277C318.208 311.255 318.634 311.191 319.082 311.085C319.552 310.957 320 310.861 320.426 310.797C320.533 310.754 320.608 310.69 320.65 310.605C320.693 310.498 320.682 310.402 320.618 310.317C320.597 310.253 320.576 310.189 320.554 310.125C320.533 310.061 320.533 309.986 320.554 309.901C320.597 309.773 320.682 309.709 320.81 309.709H320.874C321.152 309.559 321.269 309.346 321.226 309.069ZM337.66 307.661C337.958 308.109 337.937 308.525 337.596 308.909C337.574 308.909 337.553 308.919 337.532 308.941C337.532 308.941 337.521 308.941 337.5 308.941C337.329 309.111 337.212 309.303 337.148 309.517C336.977 309.858 336.721 310.103 336.38 310.253C336.038 310.381 335.665 310.466 335.26 310.509C334.854 310.551 334.47 310.605 334.108 310.669C333.873 310.733 333.66 310.807 333.468 310.893C333.276 310.957 333.073 311.01 332.86 311.053C332.348 311.181 331.921 311.074 331.58 310.733C331.494 310.647 331.409 310.573 331.324 310.509C331.238 310.423 331.153 310.338 331.068 310.253C330.94 310.146 330.801 310.125 330.652 310.189C330.502 310.231 330.428 310.338 330.428 310.509C330.385 310.914 330.47 311.33 330.684 311.757C330.918 312.162 331.174 312.45 331.452 312.621C331.857 312.813 332.326 312.898 332.86 312.877C333.393 312.855 333.937 312.781 334.492 312.653C335.046 312.525 335.548 312.418 335.996 312.333C336.166 312.29 336.348 312.301 336.54 312.365C336.753 312.429 336.913 312.546 337.02 312.717C337.041 312.738 337.062 312.77 337.084 312.813C337.126 312.855 337.148 312.898 337.148 312.941C337.254 313.154 337.265 313.367 337.18 313.581C337.116 313.794 336.988 313.954 336.796 314.061C336.796 314.082 336.785 314.093 336.764 314.093C336.742 314.093 336.721 314.114 336.7 314.157C336.614 314.242 336.508 314.317 336.38 314.381C336.252 314.423 336.134 314.466 336.028 314.509C335.665 314.594 335.313 314.658 334.972 314.701C334.652 314.765 334.278 314.818 333.852 314.861C333.681 314.925 333.51 314.925 333.34 314.861C332.806 314.775 332.252 314.701 331.676 314.637C331.1 314.573 330.566 314.434 330.076 314.221C329.606 313.986 329.233 313.591 328.956 313.037C328.934 312.994 328.902 312.951 328.86 312.909C328.838 312.866 328.817 312.813 328.796 312.749C328.454 312.279 328.273 311.693 328.252 310.989C328.23 310.263 328.326 309.549 328.54 308.845C328.753 308.141 329.02 307.586 329.34 307.181C329.574 306.903 329.841 306.711 330.14 306.605C330.438 306.477 330.758 306.306 331.1 306.093C331.804 305.687 332.582 305.506 333.436 305.549C334.289 305.57 335.1 305.773 335.868 306.157C336.636 306.519 337.233 307.021 337.66 307.661ZM335.58 307.597C335.558 307.533 335.516 307.49 335.452 307.469C335.388 307.426 335.324 307.394 335.26 307.373C334.94 307.373 334.556 307.394 334.108 307.437C333.681 307.458 333.436 307.49 333.372 307.533C333.329 307.575 333.244 307.618 333.116 307.661C332.838 307.789 332.55 307.895 332.252 307.981C331.974 308.045 331.729 308.151 331.516 308.301C331.366 308.386 331.313 308.514 331.356 308.685C331.42 308.855 331.537 308.951 331.708 308.973C332.262 309.058 332.838 309.047 333.436 308.941C334.033 308.813 334.566 308.642 335.036 308.429C335.228 308.301 335.409 308.151 335.58 307.981C335.686 307.831 335.686 307.703 335.58 307.597ZM366.136 300.909C366.115 300.93 366.104 300.973 366.104 301.037C366.104 301.101 366.083 301.154 366.04 301.197C366.019 301.559 365.838 301.89 365.496 302.189C365.347 302.338 365.219 302.519 365.112 302.733C365.027 302.946 364.963 303.159 364.92 303.373C364.92 303.501 364.899 303.618 364.856 303.725C364.814 303.81 364.76 303.906 364.696 304.013C364.462 304.397 364.238 304.813 364.024 305.261C363.811 305.709 363.555 306.125 363.256 306.509C363.235 306.551 363.224 306.615 363.224 306.701C363.267 306.978 363.224 307.202 363.096 307.373C362.734 307.97 362.35 308.546 361.944 309.101C361.539 309.634 361.187 310.231 360.888 310.893C360.824 311.063 360.728 311.213 360.6 311.341C360.088 311.938 359.555 312.514 359 313.069C358.446 313.602 357.891 314.135 357.336 314.669C357.208 314.754 357.08 314.829 356.952 314.893C356.824 314.978 356.675 315.042 356.504 315.085C356.312 315.106 356.131 315.127 355.96 315.149C355.811 315.191 355.672 315.234 355.544 315.277C355.118 315.426 354.691 315.415 354.264 315.245C354.115 315.159 353.966 315.074 353.816 314.989C353.667 314.925 353.507 314.861 353.336 314.797C353.187 314.733 353.059 314.658 352.952 314.573C352.867 314.487 352.771 314.402 352.664 314.317C351.747 313.271 351.096 312.013 350.712 310.541C350.35 309.069 350.062 307.554 349.848 305.997C349.827 305.762 349.827 305.517 349.848 305.261C349.891 304.983 349.891 304.727 349.848 304.493C349.763 303.746 349.688 302.861 349.624 301.837C349.582 300.791 349.635 299.81 349.784 298.893C349.827 298.509 350.051 298.317 350.456 298.317H350.68C351.107 298.231 351.512 298.295 351.896 298.509C352.302 298.701 352.643 298.978 352.92 299.341C353.219 299.682 353.411 300.034 353.496 300.397C353.603 300.845 353.603 301.325 353.496 301.837C353.411 302.327 353.358 302.786 353.336 303.213C353.336 303.341 353.347 303.479 353.368 303.629C353.39 303.757 353.4 303.874 353.4 303.981C353.4 304.514 353.39 304.962 353.368 305.325C353.368 305.666 353.411 306.114 353.496 306.669C353.539 306.946 353.55 307.234 353.528 307.533C353.528 307.81 353.539 308.098 353.56 308.397C353.603 308.738 353.678 309.058 353.784 309.357C353.891 309.655 353.955 309.954 353.976 310.253C353.998 310.53 354.008 310.807 354.008 311.085C354.03 311.341 354.072 311.618 354.136 311.917C354.179 312.087 354.286 312.215 354.456 312.301C354.648 312.365 354.819 312.343 354.968 312.237C355.907 311.639 356.728 310.914 357.432 310.061C358.158 309.207 358.819 308.279 359.416 307.277C360.035 306.253 360.632 305.218 361.208 304.173C361.784 303.127 362.382 302.114 363 301.133C363.064 301.026 363.118 300.93 363.16 300.845C363.224 300.738 363.267 300.621 363.288 300.493C363.395 299.938 363.704 299.629 364.216 299.565C364.728 299.501 365.198 299.586 365.624 299.821C366.03 300.034 366.2 300.397 366.136 300.909ZM370.961 313.741C370.919 313.869 370.876 313.986 370.833 314.093C370.812 314.199 370.769 314.306 370.705 314.413C370.535 314.925 370.183 315.159 369.649 315.117C369.287 315.117 368.935 314.989 368.593 314.733C368.273 314.498 367.985 314.231 367.729 313.933C367.409 313.57 367.313 313.165 367.441 312.717C367.463 312.631 367.484 312.557 367.505 312.493C367.527 312.407 367.548 312.333 367.569 312.269C367.612 312.034 367.729 311.853 367.921 311.725C368.113 311.575 368.316 311.49 368.529 311.469C369.084 311.426 369.596 311.522 370.065 311.757C370.513 311.97 370.801 312.301 370.929 312.749C371.015 313.047 371.025 313.378 370.961 313.741ZM390.229 301.933V302.189C390.165 302.338 390.133 302.519 390.133 302.733C390.112 302.839 390.09 302.946 390.069 303.053C390.048 303.159 390.016 303.255 389.973 303.341C389.824 303.554 389.738 303.767 389.717 303.981C389.696 304.429 389.557 304.834 389.301 305.197C389.045 305.538 388.821 305.89 388.629 306.253C388.565 306.402 388.48 306.509 388.373 306.573C388.224 306.658 388.117 306.754 388.053 306.861C387.584 307.522 386.933 308.066 386.101 308.493C385.29 308.919 384.416 309.186 383.477 309.293C383.114 309.357 382.741 309.282 382.357 309.069C382.272 308.983 382.176 308.898 382.069 308.813C381.984 308.706 381.909 308.599 381.845 308.493C381.802 308.45 381.77 308.407 381.749 308.365C381.728 308.301 381.696 308.258 381.653 308.237C381.504 308.087 381.44 307.917 381.461 307.725C381.504 307.511 381.621 307.362 381.813 307.277C382.453 306.914 383.114 306.562 383.797 306.221C384.48 305.879 385.066 305.442 385.557 304.909C386.048 304.354 386.453 303.799 386.773 303.245C387.093 302.669 387.072 301.986 386.709 301.197C386.624 301.026 386.528 300.877 386.421 300.749C386.336 300.621 386.218 300.514 386.069 300.429C385.6 300.066 385.088 299.821 384.533 299.693C384 299.543 383.52 299.415 383.093 299.309C382.965 299.287 382.858 299.234 382.773 299.149C382.709 299.042 382.656 298.946 382.613 298.861C382.57 298.754 382.57 298.637 382.613 298.509C382.677 298.381 382.762 298.295 382.869 298.253C383.274 298.125 383.882 298.082 384.693 298.125C385.504 298.146 386.357 298.274 387.253 298.509C388.149 298.743 388.917 299.127 389.557 299.661C389.557 299.682 389.568 299.693 389.589 299.693C389.632 299.821 389.664 299.949 389.685 300.077C389.728 300.183 389.792 300.29 389.877 300.397C390.048 300.631 390.154 300.855 390.197 301.069C390.261 301.282 390.272 301.57 390.229 301.933ZM381.717 302.157C381.632 302.477 381.504 302.797 381.333 303.117C381.184 303.415 381.034 303.746 380.885 304.109C380.757 304.45 380.682 304.834 380.661 305.261C380.64 305.666 380.576 306.029 380.469 306.349C380.341 306.69 380.202 307.053 380.053 307.437C379.904 307.821 379.754 308.279 379.605 308.813C379.541 309.047 379.466 309.293 379.381 309.549C379.317 309.783 379.253 310.018 379.189 310.253C379.061 310.701 378.933 311.117 378.805 311.501C378.698 311.885 378.56 312.247 378.389 312.589C378.346 312.695 378.304 312.813 378.261 312.941C378.218 313.069 378.197 313.207 378.197 313.357C378.197 313.634 378.122 313.922 377.973 314.221C377.845 314.498 377.685 314.754 377.493 314.989C377.152 315.394 376.736 315.49 376.245 315.277C376.096 315.191 375.957 315.085 375.829 314.957C375.722 314.85 375.616 314.743 375.509 314.637C375.232 314.21 375.125 313.762 375.189 313.293C375.381 312.119 375.605 311.021 375.861 309.997C376.117 308.951 376.416 307.906 376.757 306.861C377.162 305.666 377.525 304.45 377.845 303.213C378.165 301.954 378.634 300.866 379.253 299.949C379.36 299.778 379.52 299.671 379.733 299.629C379.946 299.565 380.138 299.586 380.309 299.693C380.544 299.842 380.746 300.023 380.917 300.237C381.109 300.429 381.28 300.621 381.429 300.813C381.749 301.239 381.845 301.687 381.717 302.157ZM403.243 313.261C403.222 313.474 403.137 313.655 402.987 313.805C402.838 313.954 402.646 314.018 402.411 313.997C401.942 313.954 401.483 313.815 401.035 313.581C400.609 313.346 400.257 313.09 399.979 312.813C399.894 312.706 399.787 312.663 399.659 312.685C399.553 312.706 399.467 312.781 399.403 312.909C399.382 313.015 399.275 313.122 399.083 313.229C398.998 313.293 398.913 313.367 398.827 313.453C398.763 313.517 398.689 313.591 398.603 313.677C398.454 313.847 398.283 313.997 398.091 314.125C397.921 314.253 397.761 314.423 397.611 314.637C397.334 315.021 396.961 315.234 396.491 315.277C396.129 315.341 395.755 315.362 395.371 315.341C394.987 315.319 394.625 315.266 394.283 315.181C393.985 315.117 393.707 314.978 393.451 314.765C393.409 314.722 393.366 314.679 393.323 314.637C393.281 314.594 393.227 314.562 393.163 314.541C392.886 314.37 392.662 314.146 392.491 313.869C392.214 313.378 391.969 312.855 391.755 312.301C391.542 311.725 391.51 311.117 391.659 310.477C391.766 309.986 391.947 309.463 392.203 308.909C392.481 308.333 392.737 307.853 392.971 307.469C393.462 306.701 394.113 306.103 394.923 305.677C395.734 305.229 396.619 305.09 397.579 305.261C398.39 305.41 399.094 305.687 399.691 306.093C400.31 306.498 400.843 307.031 401.291 307.693C401.398 307.842 401.419 307.991 401.355 308.141C401.313 308.29 401.206 308.386 401.035 308.429C400.694 308.493 400.406 308.429 400.171 308.237C399.638 307.746 398.998 307.501 398.251 307.501C397.505 307.501 396.822 307.671 396.203 308.013C396.118 308.055 396.043 308.098 395.979 308.141C395.937 308.183 395.894 308.237 395.851 308.301C395.595 308.535 395.329 308.823 395.051 309.165C394.795 309.506 394.582 309.954 394.411 310.509C394.326 310.786 394.219 311.095 394.091 311.437C393.985 311.778 393.942 312.098 393.963 312.397C393.963 312.61 394.049 312.791 394.219 312.941C394.39 313.069 394.582 313.122 394.795 313.101C395.521 312.994 396.118 312.759 396.587 312.397C397.057 312.013 397.483 311.597 397.867 311.149C398.273 310.701 398.71 310.295 399.179 309.933C399.371 309.805 399.585 309.751 399.819 309.773C400.054 309.794 400.246 309.89 400.395 310.061C400.609 310.231 400.769 310.477 400.875 310.797C400.982 311.117 401.078 311.447 401.163 311.789C401.227 312.002 401.345 312.183 401.515 312.333C401.707 312.461 401.921 312.514 402.155 312.493H402.475C402.71 312.471 402.902 312.535 403.051 312.685C403.201 312.834 403.265 313.026 403.243 313.261ZM417.047 307.693C417.153 307.906 417.132 308.109 416.983 308.301C416.855 308.493 416.684 308.578 416.471 308.557C416.236 308.514 415.98 308.471 415.703 308.429C415.447 308.365 415.233 308.365 415.063 308.429C415.041 308.45 414.892 308.567 414.615 308.781C414.359 308.994 414.124 309.154 413.911 309.261C413.463 309.495 413.068 309.805 412.727 310.189C412.407 310.551 412.076 310.893 411.735 311.213C411.649 311.319 411.553 311.426 411.447 311.533C411.361 311.618 411.276 311.714 411.191 311.821C411.105 311.97 410.999 312.098 410.871 312.205C410.743 312.29 410.615 312.386 410.487 312.493C410.38 312.578 410.273 312.685 410.167 312.813C410.081 312.919 410.007 313.026 409.943 313.133C409.815 313.367 409.665 313.581 409.495 313.773C409.345 313.943 409.185 314.125 409.015 314.317C408.908 314.466 408.748 314.562 408.535 314.605C408.343 314.647 408.161 314.637 407.991 314.573C407.863 314.509 407.724 314.477 407.575 314.477C407.276 314.413 407.105 314.103 407.063 313.549C407.041 312.973 407.095 312.269 407.223 311.437C407.351 310.583 407.5 309.709 407.671 308.813C407.863 307.895 408.033 307.063 408.183 306.317C408.225 306.082 408.225 305.869 408.183 305.677C408.14 305.485 408.183 305.314 408.311 305.165C408.439 305.015 408.599 304.951 408.791 304.973C409.175 305.015 409.505 305.122 409.783 305.293C410.06 305.463 410.252 305.773 410.359 306.221C410.487 306.669 410.497 307.351 410.391 308.269C410.369 308.418 410.423 308.525 410.551 308.589C410.7 308.631 410.817 308.589 410.903 308.461C411.564 307.629 412.204 307.063 412.823 306.765C413.441 306.466 414.017 306.274 414.551 306.189C414.913 306.103 415.297 306.167 415.703 306.381C416.001 306.53 416.268 306.722 416.503 306.957C416.759 307.17 416.94 307.415 417.047 307.693ZM430.89 307.693C430.997 307.906 430.976 308.109 430.826 308.301C430.698 308.493 430.528 308.578 430.314 308.557C430.08 308.514 429.824 308.471 429.546 308.429C429.29 308.365 429.077 308.365 428.906 308.429C428.885 308.45 428.736 308.567 428.458 308.781C428.202 308.994 427.968 309.154 427.754 309.261C427.306 309.495 426.912 309.805 426.57 310.189C426.25 310.551 425.92 310.893 425.578 311.213C425.493 311.319 425.397 311.426 425.29 311.533C425.205 311.618 425.12 311.714 425.034 311.821C424.949 311.97 424.842 312.098 424.714 312.205C424.586 312.29 424.458 312.386 424.33 312.493C424.224 312.578 424.117 312.685 424.01 312.813C423.925 312.919 423.85 313.026 423.786 313.133C423.658 313.367 423.509 313.581 423.338 313.773C423.189 313.943 423.029 314.125 422.858 314.317C422.752 314.466 422.592 314.562 422.378 314.605C422.186 314.647 422.005 314.637 421.834 314.573C421.706 314.509 421.568 314.477 421.418 314.477C421.12 314.413 420.949 314.103 420.906 313.549C420.885 312.973 420.938 312.269 421.066 311.437C421.194 310.583 421.344 309.709 421.514 308.813C421.706 307.895 421.877 307.063 422.026 306.317C422.069 306.082 422.069 305.869 422.026 305.677C421.984 305.485 422.026 305.314 422.154 305.165C422.282 305.015 422.442 304.951 422.634 304.973C423.018 305.015 423.349 305.122 423.626 305.293C423.904 305.463 424.096 305.773 424.202 306.221C424.33 306.669 424.341 307.351 424.234 308.269C424.213 308.418 424.266 308.525 424.394 308.589C424.544 308.631 424.661 308.589 424.746 308.461C425.408 307.629 426.048 307.063 426.666 306.765C427.285 306.466 427.861 306.274 428.394 306.189C428.757 306.103 429.141 306.167 429.546 306.381C429.845 306.53 430.112 306.722 430.346 306.957C430.602 307.17 430.784 307.415 430.89 307.693ZM445.47 309.261C445.47 309.474 445.406 309.677 445.278 309.869C445.15 310.061 445.022 310.295 444.894 310.573C444.873 310.637 444.873 310.711 444.894 310.797C444.937 310.861 444.937 310.925 444.894 310.989C444.638 311.501 444.382 311.885 444.126 312.141C443.891 312.397 443.635 312.663 443.358 312.941C443.102 313.154 442.867 313.303 442.654 313.389C442.398 313.474 442.142 313.57 441.886 313.677C441.63 313.783 441.385 313.911 441.15 314.061C441.022 314.167 440.851 314.253 440.638 314.317C440.361 314.402 439.902 314.487 439.262 314.573C438.643 314.637 437.929 314.519 437.118 314.221C437.011 314.157 436.905 314.103 436.798 314.061C436.713 313.997 436.617 313.922 436.51 313.837C436.446 313.773 436.382 313.709 436.318 313.645C436.254 313.581 436.169 313.538 436.062 313.517C435.785 313.389 435.561 313.197 435.39 312.941C435.305 312.834 435.209 312.717 435.102 312.589C434.995 312.461 434.889 312.354 434.782 312.269C434.697 312.162 434.622 312.055 434.558 311.949C434.494 311.821 434.441 311.682 434.398 311.533C434.206 310.765 434.174 309.986 434.302 309.197C434.43 308.386 434.707 307.65 435.134 306.989C435.582 306.306 436.158 305.773 436.862 305.389C437.523 305.026 438.238 304.887 439.006 304.973C439.774 305.058 440.457 305.346 441.054 305.837C441.353 306.05 441.545 306.37 441.63 306.797C441.673 306.946 441.619 307.074 441.47 307.181C441.342 307.287 441.203 307.298 441.054 307.213C440.862 307.106 440.649 306.999 440.414 306.893C440.201 306.786 440.009 306.722 439.838 306.701C439.774 306.679 439.582 306.701 439.262 306.765C438.963 306.829 438.622 306.957 438.238 307.149C437.875 307.341 437.555 307.65 437.278 308.077C437.129 308.269 436.937 308.546 436.702 308.909C436.489 309.25 436.393 309.559 436.414 309.837C436.457 310.029 436.51 310.231 436.574 310.445C436.659 310.637 436.745 310.818 436.83 310.989C437.086 311.522 437.491 311.842 438.046 311.949C438.601 312.055 439.166 312.055 439.742 311.949C440.339 311.842 440.819 311.725 441.182 311.597C441.481 311.49 441.726 311.351 441.918 311.181C442.131 311.01 442.313 310.861 442.462 310.733C442.931 310.391 443.198 309.975 443.262 309.485C443.326 308.994 443.262 308.45 443.07 307.853C443.027 307.725 443.059 307.607 443.166 307.501C443.294 307.394 443.433 307.383 443.582 307.469C443.689 307.533 443.795 307.597 443.902 307.661C444.009 307.703 444.105 307.757 444.19 307.821C444.297 307.885 444.403 307.949 444.51 308.013C444.617 308.077 444.713 308.162 444.798 308.269C444.969 308.418 445.129 308.578 445.278 308.749C445.427 308.919 445.491 309.09 445.47 309.261ZM459.888 303.949C459.93 304.162 459.888 304.365 459.76 304.557C459.653 304.749 459.482 304.877 459.248 304.941C458.842 305.069 458.373 305.101 457.84 305.037C457.306 304.951 456.762 304.909 456.208 304.909C455.994 304.909 455.792 304.983 455.6 305.133C455.429 305.261 455.312 305.421 455.248 305.613C455.098 306.061 454.949 306.583 454.8 307.181C454.672 307.757 454.576 308.311 454.512 308.845C454.448 309.357 454.426 309.751 454.448 310.029C454.448 310.157 454.394 310.221 454.288 310.221C454.181 310.221 454.128 310.274 454.128 310.381C454.17 310.914 454.085 311.543 453.872 312.269C453.68 312.973 453.509 313.677 453.36 314.381C453.317 314.701 453.157 314.946 452.88 315.117C452.645 315.287 452.378 315.298 452.08 315.149C451.504 314.743 451.226 314.103 451.248 313.229C451.248 313.058 451.301 312.845 451.408 312.589C451.536 312.311 451.632 312.055 451.696 311.821C451.738 311.586 451.792 311.234 451.856 310.765C451.941 310.274 452.026 309.741 452.112 309.165C452.218 308.589 452.325 308.045 452.432 307.533C452.56 307.021 452.688 306.626 452.816 306.349C452.837 306.242 452.848 306.146 452.848 306.061C452.869 305.975 452.88 305.879 452.88 305.773C452.837 305.538 452.709 305.399 452.496 305.357C452.218 305.314 451.92 305.261 451.6 305.197C451.301 305.111 451.013 305.037 450.736 304.973C450.458 304.951 450.192 304.823 449.936 304.589C449.829 304.482 449.701 304.397 449.552 304.333C449.402 304.247 449.285 304.13 449.2 303.981C449.05 303.81 449.029 303.618 449.136 303.405C449.242 303.191 449.402 303.074 449.616 303.053C450.106 302.967 450.608 302.914 451.12 302.893C451.653 302.871 452.218 302.839 452.816 302.797C453.029 302.797 453.221 302.722 453.392 302.573C453.562 302.423 453.669 302.242 453.712 302.029C453.84 301.581 453.946 301.175 454.032 300.813C454.117 300.45 454.224 300.098 454.352 299.757C454.437 299.565 454.565 299.447 454.736 299.405C454.928 299.362 455.098 299.394 455.248 299.501C455.546 299.799 455.76 300.173 455.888 300.621C456.016 301.069 456.058 301.538 456.016 302.029C455.994 302.199 456.037 302.349 456.144 302.477C456.272 302.605 456.421 302.669 456.592 302.669C457.146 302.626 457.68 302.647 458.192 302.733C458.704 302.797 459.098 303.01 459.376 303.373C459.418 303.501 459.504 303.543 459.632 303.501C459.781 303.501 459.856 303.565 459.856 303.693C459.856 303.735 459.856 303.778 459.856 303.821C459.877 303.863 459.888 303.906 459.888 303.949Z" fill="#B31312"></path>
<path d="M277.76 262.894C278.418 239.255 295.126 191.977 356.697 191.977C418.267 191.977 436.103 239.255 437.325 262.894" stroke="#B31312" stroke-width="2"></path>
<path d="M668.058 166.293C656.178 161.777 580.234 175.025 532.257 184.794C535.539 191.659 542.475 205.464 543.966 205.764C561.557 210.066 620.272 199.362 658.634 191.834C674.398 177.854 671.485 168.982 668.058 166.293Z" fill="#B31312"></path>
<path d="M44.0729 166.293C55.9528 161.777 131.894 175.025 179.87 184.794C176.589 191.659 169.652 205.464 168.162 205.764C150.571 210.066 91.8591 199.362 53.4969 191.834C37.7332 177.854 40.646 168.982 44.0729 166.293Z" fill="#B31312"></path>
<path d="M532.257 184.794C580.233 175.025 656.178 161.777 668.058 166.293C671.485 168.982 674.397 177.854 658.634 191.834C620.272 199.362 561.557 210.066 543.966 205.764M532.257 184.794C535.539 191.659 542.475 205.464 543.966 205.764M532.257 184.794C512.507 188.575 472.778 196.674 471.864 198.824M543.966 205.764C537.066 205.764 520.64 205.764 510.131 205.764M179.87 184.794C131.894 175.025 55.9528 161.777 44.0729 166.293C40.646 168.982 37.7332 177.854 53.4969 191.834C91.8591 199.362 150.571 210.066 168.162 205.764M179.87 184.794C176.589 191.659 169.652 205.464 168.162 205.764M179.87 184.794C199.62 188.575 239.349 196.674 240.263 198.824M168.162 205.764C175.061 205.764 191.487 205.764 201.996 205.764" stroke="#B31312" stroke-width="2"></path>
<path d="M223.809 37.9305C199.416 44.3865 172.326 75.0767 162.52 92.7159C191.219 96.2151 443.601 93.5175 552.566 92.7159C530.404 48.0575 505.577 37.5847 495.935 37.9305C397.605 23.5359 252.969 30.2128 223.809 37.9305Z" fill="#B31312" stroke="#B31312" stroke-width="2"></path>
<path d="M216.671 5.87097L216.515 4.37904L216.671 5.87097ZM593.159 93.3006L591.748 93.8089L592.093 94.7684L593.113 94.7999L593.159 93.3006ZM631.604 89.8832L631.916 91.3503L633.812 90.9464L632.945 89.2123L631.604 89.8832ZM628.473 61.6892L629.137 63.0342L628.473 61.6892ZM675.463 84.757L676.914 85.1355C677.033 84.6807 676.931 84.1965 676.64 83.8275L675.463 84.757ZM637.299 99.8507L637.667 98.3965L636.742 101.243L637.299 99.8507ZM644.421 102.699L643.864 104.091L643.937 104.121L644.013 104.142L644.421 102.699ZM134.851 93.9787C141.837 80.1943 154.366 59.2912 169.211 41.4314C176.633 32.502 184.602 24.3721 192.713 18.2746C200.839 12.1666 209.002 8.17785 216.826 7.36289L216.515 4.37904C207.935 5.2728 199.258 9.60226 190.911 15.8765C182.55 22.1613 174.414 30.4779 166.904 39.5138C151.884 57.5846 139.238 78.6876 132.175 92.6225L134.851 93.9787ZM216.826 7.36289C237.24 5.2364 300.025 3.73999 363.768 3.52633C427.524 3.31263 491.99 4.38366 515.796 7.35938L516.168 4.38255C492.129 1.37774 427.445 0.312873 363.758 0.526348C300.059 0.739864 237.11 2.23373 216.515 4.37904L216.826 7.36289ZM515.796 7.35938C534.3 9.67246 550.827 24.3107 564.053 42.094C577.236 59.818 586.898 80.3418 591.748 93.8089L594.57 92.7924C589.643 79.1097 579.854 58.3109 566.461 40.3036C553.112 22.3556 535.939 6.85389 516.168 4.38255L515.796 7.35938ZM632.945 89.2123C630.492 84.3065 627.918 78.3203 626.861 73.1633C626.331 70.579 626.21 68.3295 626.589 66.576C626.955 64.8791 627.766 63.7109 629.137 63.0342L627.809 60.3443C625.451 61.5083 624.173 63.5506 623.656 65.9426C623.152 68.2781 623.354 70.9958 623.922 73.7658C625.06 79.3172 627.779 85.5872 630.262 90.554L632.945 89.2123ZM629.137 63.0342C630.227 62.4961 650.873 56.0337 674.285 85.6865L676.64 83.8275C652.413 53.143 630.257 59.1351 627.809 60.3443L629.137 63.0342ZM674.011 84.3785C673.089 87.9154 669.001 92.6812 662.454 95.9573C655.993 99.1905 647.357 100.846 637.667 98.3965L636.932 101.305C647.374 103.945 656.746 102.168 663.797 98.6401C670.762 95.1546 675.69 89.829 676.914 85.1355L674.011 84.3785ZM636.742 101.243L643.864 104.091L644.978 101.306L637.856 98.458L636.742 101.243ZM644.013 104.142C650.496 105.974 660.485 109.446 669.336 113.886C673.763 116.106 677.86 118.546 681.083 121.116C684.333 123.708 686.546 126.315 687.433 128.829L690.262 127.83C689.099 124.534 686.371 121.496 682.953 118.771C679.508 116.024 675.211 113.476 670.681 111.204C661.62 106.659 651.445 103.125 644.829 101.255L644.013 104.142ZM687.433 128.829C689.466 134.588 690.949 139.813 691.923 143.598C692.41 145.489 692.77 147.019 693.007 148.074C693.125 148.601 693.214 149.01 693.272 149.285C693.301 149.422 693.322 149.527 693.336 149.596C693.344 149.63 693.349 149.656 693.352 149.673C693.354 149.681 693.355 149.687 693.356 149.691C693.356 149.693 693.357 149.695 693.357 149.695C693.357 149.696 693.357 149.696 693.357 149.696C693.357 149.696 693.357 149.696 693.357 149.696C693.357 149.696 693.357 149.696 694.828 149.404C696.299 149.111 696.299 149.111 696.299 149.111C696.299 149.111 696.299 149.11 696.299 149.11C696.299 149.11 696.299 149.109 696.299 149.108C696.298 149.107 696.298 149.105 696.297 149.102C696.296 149.097 696.295 149.089 696.293 149.079C696.289 149.06 696.283 149.031 696.275 148.994C696.26 148.919 696.237 148.808 696.207 148.665C696.146 148.377 696.055 147.956 695.934 147.416C695.69 146.334 695.324 144.774 694.828 142.85C693.838 139.002 692.33 133.691 690.262 127.83L687.433 128.829ZM593.113 94.7999C608.972 95.2902 616.388 94.658 631.916 91.3503L631.291 88.4161C616.004 91.6724 608.83 92.2844 593.205 91.8013L593.113 94.7999Z" fill="#B31312"></path>
<path d="M136.074 94.4397C126.961 92.4462 104.465 88.2883 97.6298 91.0223L93.0732 87.3201C98.5791 80.0105 107.654 64.2523 99.9081 59.6957C86.0485 59.9805 56.9053 65.0497 51.2095 83.0483C50.3552 86.9403 55.0826 95.1232 80.8274 96.718L73.4229 103.268C53.5211 98.3402 17.3253 133.696 17.6046 152.821" stroke="#B31312" stroke-width="3"></path>
</svg>
